<svg width="48" height="48" viewBox="0 0 48 48" fill="none" xmlns="http://www.w3.org/2000/svg">
<path d="M9 26.1729V39.0001C9 39.3979 9.15804 39.7794 9.43934 40.0607C9.72064 40.342 10.1022 40.5001 10.5 40.5001H37.5C37.8978 40.5001 38.2794 40.342 38.5607 40.0607C38.842 39.7794 39 39.3979 39 39.0001V26.1731" stroke="#B79B7E" stroke-width="3" stroke-linecap="round" stroke-linejoin="round"/>
<path d="M10.1315 7.5H37.8685C38.1945 7.5 38.5116 7.60618 38.7718 7.80248C39.0321 7.99877 39.2213 8.27449 39.3108 8.58792L42 18H6L8.68917 8.58792C8.77872 8.27449 8.96792 7.99877 9.22816 7.80248C9.48839 7.60618 9.80549 7.5 10.1315 7.5Z" stroke="#B79B7E" stroke-width="3" stroke-linecap="round" stroke-linejoin="round"/>
<path d="M18 18V21C18 22.5913 17.3679 24.1174 16.2426 25.2426C15.1174 26.3679 13.5913 27 12 27C10.4087 27 8.88258 26.3679 7.75736 25.2426C6.63214 24.1174 6 22.5913 6 21V18" stroke="#B79B7E" stroke-width="3" stroke-linecap="round" stroke-linejoin="round"/>
<path d="M30 18V21C30 22.5913 29.3679 24.1174 28.2426 25.2426C27.1174 26.3679 25.5913 27 24 27C22.4087 27 20.8826 26.3679 19.7574 25.2426C18.6321 24.1174 18 22.5913 18 21V18" stroke="#B79B7E" stroke-width="3" stroke-linecap="round" stroke-linejoin="round"/>
<path d="M42 18V21C42 22.5913 41.3679 24.1174 40.2426 25.2426C39.1174 26.3679 37.5913 27 36 27C34.4087 27 32.8826 26.3679 31.7574 25.2426C30.6321 24.1174 30 22.5913 30 21V18" stroke="#B79B7E" stroke-width="3" stroke-linecap="round" stroke-linejoin="round"/>
</svg>
