<svg width="48" height="48" viewBox="0 0 48 48" fill="none" xmlns="http://www.w3.org/2000/svg">
<path d="M18 10.5V37.5" stroke="#B79B7E" stroke-width="3" stroke-linecap="round" stroke-linejoin="round"/>
<path d="M4.5 31.3482C4.49994 31.0026 4.61936 30.6676 4.83804 30.4001C5.05671 30.1325 5.36118 29.9488 5.69984 29.88C7.05499 29.6031 8.2729 28.8667 9.14758 27.7953C10.0223 26.7238 10.5 25.3831 10.5 24C10.5 22.6169 10.0223 21.2762 9.14758 20.2047C8.2729 19.1333 7.05499 18.3969 5.69984 18.12C5.36118 18.0512 5.05671 17.8675 4.83804 17.5999C4.61936 17.3324 4.49994 16.9974 4.5 16.6518V12C4.5 11.6022 4.65804 11.2206 4.93934 10.9393C5.22064 10.658 5.60218 10.5 6 10.5H42C42.3978 10.5 42.7794 10.658 43.0607 10.9393C43.342 11.2206 43.5 11.6022 43.5 12V16.6518C43.5001 16.9974 43.3806 17.3324 43.162 17.5999C42.9433 17.8675 42.6388 18.0513 42.3002 18.12C40.945 18.3969 39.7271 19.1333 38.8524 20.2047C37.9777 21.2762 37.5 22.6169 37.5 24C37.5 25.3831 37.9777 26.7238 38.8524 27.7953C39.7271 28.8667 40.945 29.6032 42.3002 29.88C42.6388 29.9488 42.9433 30.1325 43.162 30.4001C43.3806 30.6676 43.5001 31.0026 43.5 31.3482V36C43.5 36.3978 43.342 36.7794 43.0607 37.0607C42.7794 37.342 42.3978 37.5 42 37.5H6C5.60218 37.5 5.22064 37.342 4.93934 37.0607C4.65804 36.7794 4.5 36.3978 4.5 36V31.3482Z" stroke="#B79B7E" stroke-width="3" stroke-linecap="round" stroke-linejoin="round"/>
</svg>
