<svg width="48" height="48" viewBox="0 0 48 48" fill="none" xmlns="http://www.w3.org/2000/svg">
<path d="M40.5 15H7.5C6.67157 15 6 15.6716 6 16.5V22.5C6 23.3284 6.67157 24 7.5 24H40.5C41.3284 24 42 23.3284 42 22.5V16.5C42 15.6716 41.3284 15 40.5 15Z" stroke="#B79B7E" stroke-width="3" stroke-linecap="round" stroke-linejoin="round"/>
<path d="M39 24V37.5C39 37.8978 38.842 38.2794 38.5607 38.5607C38.2794 38.842 37.8978 39 37.5 39H10.5C10.1022 39 9.72064 38.842 9.43934 38.5607C9.15804 38.2794 9 37.8978 9 37.5V24" stroke="#B79B7E" stroke-width="3" stroke-linecap="round" stroke-linejoin="round"/>
<path d="M24 15V39" stroke="#B79B7E" stroke-width="3" stroke-linecap="round" stroke-linejoin="round"/>
<path d="M32.4853 12.8787C30.364 15 24 15 24 15C24 15 24 8.63601 26.1213 6.5147C26.9654 5.67158 28.1097 5.19815 29.3028 5.19849C30.4958 5.19883 31.6399 5.67291 32.4835 6.51651C33.3271 7.36011 33.8012 8.50418 33.8015 9.69721C33.8018 10.8902 33.3284 12.0346 32.4853 12.8787V12.8787Z" stroke="#B79B7E" stroke-width="3" stroke-linecap="round" stroke-linejoin="round"/>
<path d="M15.5147 12.8787C17.636 15 24 15 24 15C24 15 24 8.63601 21.8787 6.5147C21.0346 5.67158 19.8902 5.19815 18.6972 5.19849C17.5042 5.19883 16.3601 5.67291 15.5165 6.51651C14.6729 7.36011 14.1988 8.50418 14.1985 9.69721C14.1981 10.8902 14.6716 12.0346 15.5147 12.8787V12.8787Z" stroke="#B79B7E" stroke-width="3" stroke-linecap="round" stroke-linejoin="round"/>
</svg>
